<svg width="40" height="40" viewBox="0 0 40 40" fill="none" xmlns="http://www.w3.org/2000/svg">
<path d="M17.5 7.5H9.16663C8.50358 7.5 7.8677 7.76339 7.39886 8.23223C6.93002 8.70107 6.66663 9.33696 6.66663 10V27.5H33.3333V21.6667" stroke="#3D3D3D" stroke-width="4" stroke-linecap="round" stroke-linejoin="round"/>
<path d="M3.33331 27.5H36.6666V29.1667C36.6666 30.4927 36.1399 31.7645 35.2022 32.7022C34.2645 33.6399 32.9927 34.1667 31.6666 34.1667H8.33331C7.00723 34.1667 5.73546 33.6399 4.79778 32.7022C3.8601 31.7645 3.33331 30.4927 3.33331 29.1667V27.5Z" stroke="#3D3D3D" stroke-width="4" stroke-linejoin="round"/>
<path d="M29.1666 14.1667C30.5473 14.1667 31.6666 13.0475 31.6666 11.6667C31.6666 10.286 30.5473 9.16675 29.1666 9.16675C27.7859 9.16675 26.6666 10.286 26.6666 11.6667C26.6666 13.0475 27.7859 14.1667 29.1666 14.1667Z" stroke="#3D3D3D" stroke-width="4"/>
<path d="M29.1667 17.5V14.1667M29.1667 9.16671V5.83337M24.115 14.5834L27.0017 12.9167M31.3317 10.4167L34.2183 8.75004M24.115 8.75004L27.0017 10.4167M31.3317 12.9167L34.2183 14.5834" stroke="#3D3D3D" stroke-width="4" stroke-linecap="round" stroke-linejoin="round"/>
</svg>
