<svg width="565" height="588" viewBox="0 0 565 588" fill="none" xmlns="http://www.w3.org/2000/svg">
<path d="M237.199 365.957C234.174 353.398 221.144 345.722 208.812 341.768C196.479 337.814 182.983 335.489 172.745 327.581C158.319 316.184 153.898 296.414 151.803 278.273C149.709 260.131 148.313 240.594 137.144 225.941C125.044 209.892 104.103 203.613 88.978 190.355C71.7591 175.237 62.9171 150.351 69.1996 128.255C75.2494 106.159 97.122 88.9481 119.925 89.6458C136.911 90.3436 152.734 99.8796 169.953 99.8796C192.756 99.647 211.138 82.4357 226.728 65.9221C242.318 49.4086 259.537 31.2669 281.875 28.7085C302.352 26.3826 322.363 37.7793 336.324 52.8973C350.285 68.0154 359.592 86.8548 370.296 104.531C381 122.208 394.03 139.419 412.412 148.722C428.002 156.63 448.013 159.421 457.786 174.074C467.559 188.96 461.509 209.66 449.642 222.917C437.775 236.175 421.254 244.083 406.362 253.618C391.471 263.154 376.811 276.179 373.088 293.623C369.598 309.904 376.346 327.348 371.692 343.396C365.875 363.399 344.933 377.586 330.739 391.309C319.338 402.24 308.169 417.359 293.509 424.336C279.781 430.848 261.631 427.592 249.532 418.754C229.055 404.101 242.086 385.262 237.199 365.957Z" fill="url(#paint0_linear_5_210)"/>
<path d="M426.141 185.239C426.141 186.169 425.443 186.867 424.512 186.867C423.581 186.867 422.883 186.169 422.883 185.239C422.883 184.308 423.581 183.61 424.512 183.61C425.443 183.61 426.141 184.308 426.141 185.239Z" fill="#FCFDFD"/>
<path d="M397.753 162.445C398.524 162.445 399.15 161.821 399.15 161.05C399.15 160.279 398.524 159.654 397.753 159.654C396.982 159.654 396.357 160.279 396.357 161.05C396.357 161.821 396.982 162.445 397.753 162.445Z" fill="#FCFDFD"/>
<path d="M355.637 168.027C355.637 168.725 355.172 169.19 354.474 169.19C353.775 169.19 353.31 168.725 353.31 168.027C353.31 167.329 353.775 166.864 354.474 166.864C355.172 166.864 355.637 167.329 355.637 168.027Z" fill="#FCFDFD"/>
<path d="M335.626 174.308C336.654 174.308 337.488 173.474 337.488 172.447C337.488 171.419 336.654 170.586 335.626 170.586C334.598 170.586 333.764 171.419 333.764 172.447C333.764 173.474 334.598 174.308 335.626 174.308Z" fill="#FCFDFD"/>
<path d="M325.621 206.171C325.621 206.869 325.155 207.334 324.457 207.334C323.759 207.334 323.293 206.869 323.293 206.171C323.293 205.473 323.759 205.008 324.457 205.008C325.155 205.241 325.621 205.706 325.621 206.171Z" fill="#FCFDFD"/>
<path d="M297.465 187.797C297.465 188.495 297 188.96 296.302 188.96C295.604 188.96 295.138 188.495 295.138 187.797C295.138 187.099 295.604 186.634 296.302 186.634C297 186.401 297.465 187.099 297.465 187.797Z" fill="#FCFDFD"/>
<path d="M304.446 197.1C304.446 197.798 303.981 198.264 303.282 198.264C302.584 198.264 302.119 197.798 302.119 197.1C302.119 196.403 302.584 195.937 303.282 195.937C303.981 195.937 304.446 196.635 304.446 197.1Z" fill="#FCFDFD"/>
<path d="M302.817 196.868C302.817 197.566 302.352 198.031 301.654 198.031C300.956 198.031 300.49 197.566 300.49 196.868C300.49 196.17 300.956 195.705 301.654 195.705C302.352 195.705 302.817 196.17 302.817 196.868Z" fill="#FCFDFD"/>
<path d="M295.604 209.893C295.604 210.823 294.906 211.754 293.742 211.754C292.812 211.754 291.881 211.056 291.881 209.893C291.881 208.962 292.579 208.032 293.742 208.032C294.906 208.032 295.604 208.962 295.604 209.893Z" fill="#FCFDFD"/>
<path d="M267.449 161.283C268.091 161.283 268.612 160.762 268.612 160.119C268.612 159.477 268.091 158.956 267.449 158.956C266.806 158.956 266.285 159.477 266.285 160.119C266.285 160.762 266.806 161.283 267.449 161.283Z" fill="#FCFDFD"/>
<path d="M277.222 167.795C277.222 168.493 276.756 168.958 276.058 168.958C275.36 168.958 274.895 168.493 274.895 167.795C274.895 167.097 275.36 166.632 276.058 166.632C276.756 166.632 277.222 167.097 277.222 167.795Z" fill="#FCFDFD"/>
<path d="M291.416 185.239C291.416 186.169 290.718 186.867 289.787 186.867C288.856 186.867 288.158 186.169 288.158 185.239C288.158 184.308 288.856 183.61 289.787 183.61C290.718 183.61 291.416 184.308 291.416 185.239Z" fill="#FCFDFD"/>
<path d="M290.717 140.815C291.36 140.815 291.881 140.294 291.881 139.652C291.881 139.01 291.36 138.489 290.717 138.489C290.075 138.489 289.554 139.01 289.554 139.652C289.554 140.294 290.075 140.815 290.717 140.815Z" fill="#FCFDFD"/>
<path d="M280.247 122.673C281.146 122.673 281.876 121.944 281.876 121.045C281.876 120.146 281.146 119.417 280.247 119.417C279.347 119.417 278.617 120.146 278.617 121.045C278.617 121.944 279.347 122.673 280.247 122.673Z" fill="#FCFDFD"/>
<path d="M286.995 98.2518C286.995 99.1823 286.297 99.8801 285.366 99.8801C284.435 99.8801 283.737 99.1823 283.737 98.2518C283.737 97.3213 284.435 96.6234 285.366 96.6234C286.297 96.3908 286.995 97.3213 286.995 98.2518Z" fill="#FCFDFD"/>
<path d="M274.429 102.438C275.201 102.438 275.826 101.814 275.826 101.043C275.826 100.272 275.201 99.647 274.429 99.647C273.658 99.647 273.033 100.272 273.033 101.043C273.033 101.814 273.658 102.438 274.429 102.438Z" fill="#FCFDFD"/>
<path d="M284.202 44.9896C284.202 45.6875 283.737 46.1528 283.039 46.1528C282.341 46.1528 281.875 45.6875 281.875 44.9896C281.875 44.2918 282.341 43.8265 283.039 43.8265C283.504 43.8265 284.202 44.2918 284.202 44.9896Z" fill="#FCFDFD"/>
<path d="M287.227 130.348C287.227 131.046 286.762 131.512 286.064 131.512C285.365 131.512 284.9 131.046 284.9 130.348C284.9 129.651 285.365 129.185 286.064 129.185C286.762 128.953 287.227 129.651 287.227 130.348Z" fill="#FCFDFD"/>
<path d="M249.299 127.325C249.299 128.023 248.601 128.721 247.903 128.721C247.205 128.721 246.507 128.023 246.507 127.325C246.507 126.627 247.205 125.929 247.903 125.929C248.601 125.929 249.299 126.627 249.299 127.325Z" fill="#FCFDFD"/>
<path d="M245.809 105.694C245.809 106.392 245.344 106.858 244.645 106.858C243.947 106.858 243.482 106.392 243.482 105.694C243.482 104.997 243.947 104.531 244.645 104.531C245.111 104.531 245.809 105.229 245.809 105.694Z" fill="#FCFDFD"/>
<path d="M217.654 149.188C217.654 150.118 216.956 150.816 216.025 150.816C215.094 150.816 214.396 150.118 214.396 149.188C214.396 148.257 215.094 147.56 216.025 147.56C216.956 147.56 217.654 148.257 217.654 149.188Z" fill="#FCFDFD"/>
<path d="M199.737 107.788C199.737 108.718 199.039 109.649 197.876 109.649C196.945 109.649 196.014 108.951 196.014 107.788C196.014 106.857 196.712 105.927 197.876 105.927C199.039 105.927 199.737 106.857 199.737 107.788Z" fill="#FCFDFD"/>
<path d="M197.178 120.347C197.178 121.278 196.48 121.976 195.549 121.976C194.618 121.976 193.92 121.278 193.92 120.347C193.92 119.417 194.618 118.719 195.549 118.719C196.48 118.952 197.178 119.65 197.178 120.347Z" fill="#FCFDFD"/>
<path d="M196.014 115.928C196.014 116.859 195.316 117.557 194.385 117.557C193.454 117.557 192.756 116.859 192.756 115.928C192.756 114.998 193.454 114.3 194.385 114.3C195.316 114.3 196.014 114.998 196.014 115.928Z" fill="#FCFDFD"/>
<path d="M153.665 103.601C153.665 104.532 152.967 105.23 152.036 105.23C151.105 105.23 150.407 104.532 150.407 103.601C150.407 102.671 151.105 101.973 152.036 101.973C152.967 101.973 153.665 102.671 153.665 103.601Z" fill="#FCFDFD"/>
<path d="M161.344 139.652C161.344 140.35 160.878 140.815 160.18 140.815C159.482 140.815 159.017 140.35 159.017 139.652C159.017 138.954 159.482 138.489 160.18 138.489C160.646 138.256 161.344 138.954 161.344 139.652Z" fill="#FCFDFD"/>
<path d="M147.848 128.72C147.848 129.418 147.383 129.883 146.684 129.883C145.986 129.883 145.521 129.418 145.521 128.72C145.521 128.023 145.986 127.557 146.684 127.557C147.383 127.557 147.848 128.023 147.848 128.72Z" fill="#FCFDFD"/>
<path d="M145.056 125.929C145.056 126.627 144.59 127.092 143.892 127.092C143.194 127.092 142.729 126.627 142.729 125.929C142.729 125.231 143.194 124.766 143.892 124.766C144.358 124.534 145.056 125.231 145.056 125.929Z" fill="#FCFDFD"/>
<path d="M131.56 130.116C131.56 130.814 131.095 131.512 130.164 131.512C129.466 131.512 128.767 131.046 128.767 130.116C128.767 129.418 129.233 128.72 130.164 128.72C131.095 128.72 131.56 129.418 131.56 130.116Z" fill="#FCFDFD"/>
<path d="M129.001 138.024C129.001 138.954 128.302 139.652 127.371 139.652C126.441 139.652 125.742 138.954 125.742 138.024C125.742 137.093 126.441 136.396 127.371 136.396C128.302 136.396 129.001 137.093 129.001 138.024Z" fill="#FCFDFD"/>
<path d="M113.178 151.979C113.178 152.677 112.712 153.142 112.014 153.142C111.316 153.142 110.85 152.677 110.85 151.979C110.85 151.281 111.316 150.816 112.014 150.816C112.712 150.816 113.178 151.514 113.178 151.979Z" fill="#FCFDFD"/>
<path d="M114.574 149.653C115.473 149.653 116.203 148.924 116.203 148.025C116.203 147.126 115.473 146.397 114.574 146.397C113.674 146.397 112.945 147.126 112.945 148.025C112.945 148.924 113.674 149.653 114.574 149.653Z" fill="#FCFDFD"/>
<path d="M120.624 155.701C121.395 155.701 122.02 155.076 122.02 154.305C122.02 153.534 121.395 152.909 120.624 152.909C119.852 152.909 119.227 153.534 119.227 154.305C119.227 155.076 119.852 155.701 120.624 155.701Z" fill="#FCFDFD"/>
<path d="M127.139 133.14C127.139 134.07 126.441 135.001 125.277 135.001C124.114 135.001 123.416 134.303 123.416 133.14C123.416 131.976 124.114 131.279 125.277 131.279C126.441 131.279 127.139 132.209 127.139 133.14Z" fill="#FCFDFD"/>
<path d="M438.473 264.783C452.434 262.457 458.717 258.968 461.975 254.316C463.603 251.99 464.534 249.199 464.999 245.943C465.232 244.315 465.465 242.687 465.698 241.059C465.93 239.431 466.396 237.57 466.628 235.709C467.326 231.988 469.188 228.034 471.747 225.011C474.307 221.754 477.797 219.196 481.52 217.8C489.199 214.777 498.274 215.94 506.883 225.011C511.304 229.43 512.933 234.314 513.166 238.966C513.166 241.291 512.933 243.617 512.235 245.943C511.537 248.269 510.606 250.595 509.675 252.921C507.581 257.572 504.556 261.992 501.764 265.946C499.204 269.899 496.645 273.621 495.016 276.412C491.991 281.994 496.412 287.111 500.833 293.623C505.487 300.136 510.141 308.276 509.443 319.905C509.21 322.929 508.512 325.255 507.814 327.813C507.116 330.139 505.952 332.232 504.556 334.093C501.764 337.814 497.808 340.605 493.853 343.164C489.897 345.722 485.243 347.816 481.055 349.909C476.866 352.002 473.143 354.328 470.119 356.654C458.252 366.422 461.975 383.634 475.238 398.519C481.986 405.962 483.614 411.777 481.52 417.126C479.659 422.243 475.005 426.895 469.188 431.314C457.786 440.152 453.365 447.13 461.742 462.48C462.207 463.41 462.673 464.341 462.905 465.271C463.138 466.202 463.371 467.132 463.371 468.295C463.371 470.155 463.138 472.249 462.207 474.342C460.578 478.296 457.321 482.25 453.132 485.971C444.756 493.181 431.725 499.229 418.462 499.926C405.199 500.392 389.842 495.507 377.044 484.808C373.786 482.25 370.761 479.226 368.202 475.97C365.41 472.714 363.083 468.993 360.756 465.271C359.592 463.41 358.662 461.317 357.731 459.224C356.8 457.131 356.102 455.037 355.404 452.944C354.008 448.525 352.845 443.873 352.379 439.222C351.216 426.429 353.543 415.498 358.196 406.194C362.617 396.891 369.365 389.448 375.88 382.238C379.138 378.749 382.628 375.493 385.653 372.004C388.911 368.748 391.703 365.259 394.263 361.771C397.055 358.282 399.149 354.561 401.011 350.607C401.941 348.513 402.639 346.42 403.105 344.327C403.57 342.001 404.036 339.908 404.501 337.349C404.966 332.465 405.199 327.813 405.199 323.394C405.432 318.975 405.432 314.788 405.432 310.834C405.432 306.881 405.432 303.159 405.664 299.67C405.897 296.182 406.362 292.925 407.06 289.902C407.759 286.878 408.689 284.087 410.085 281.529C411.482 278.97 413.343 276.644 415.67 274.551C421.022 269.667 427.77 266.411 438.473 264.783Z" fill="url(#paint1_linear_5_210)"/>
<path d="M34.2966 285.948C38.7176 271.295 38.0196 263.387 34.0639 258.735C32.2024 256.41 29.6429 254.781 26.6179 253.153C24.9891 252.456 23.593 251.758 21.7315 251.06C19.87 250.362 18.2412 249.665 16.147 248.967C12.424 247.571 8.93376 245.013 6.3742 241.757C3.81465 238.5 1.48779 234.779 0.55704 230.593C-1.30445 222.219 1.25509 211.986 11.9587 202.915C17.3105 198.496 22.895 197.1 28.4794 197.798C31.2717 198.263 34.0639 198.961 36.8561 200.356C39.6484 201.519 42.4406 203.147 44.7675 205.241C49.8866 209.195 54.5403 213.846 58.7287 218.498C62.6844 223.15 66.1747 227.569 68.9669 230.36C74.5514 236.175 81.532 233.849 91.0721 232.453C100.38 231.058 112.247 230.127 125.742 240.361C129.233 242.92 132.025 245.478 134.352 248.502C136.679 251.525 138.307 254.549 139.704 257.572C142.496 263.852 143.892 270.365 143.892 276.877C144.125 283.389 143.659 289.902 142.961 295.716C142.263 301.764 141.565 307.346 141.798 312.23C142.03 317.114 143.194 321.533 145.055 325.72C146.917 329.906 149.709 333.395 153.432 336.884C155.294 338.512 157.155 340.14 159.482 341.536C161.576 342.931 163.903 344.559 166.23 345.722C171.116 348.281 176.701 350.607 182.518 352.7C188.568 354.561 192.756 357.352 196.014 360.608C199.271 363.864 201.133 367.585 202.296 371.539C204.39 379.68 202.529 388.983 199.504 397.821C192.989 415.963 191.825 425.499 206.95 443.408C207.881 444.571 208.812 445.734 209.51 446.897C210.208 448.06 210.673 449.455 210.906 450.851C211.604 453.642 211.836 456.665 211.604 459.689C211.138 465.736 208.812 472.016 204.623 477.831C196.712 489.46 182.983 498.298 168.091 500.159C152.967 502.02 135.05 498.066 119.227 490.39C117.133 489.46 115.272 488.53 113.41 487.367C111.549 486.204 109.454 485.273 107.593 484.111C103.87 481.785 100.38 479.226 97.122 476.435C95.4932 475.04 93.8644 473.644 92.4682 472.249C90.8394 470.853 89.4433 469.225 88.0472 467.83C85.2549 464.806 82.6954 461.317 80.8339 457.828C75.0167 448.292 73.6206 439.222 73.8533 430.151C74.5514 421.08 76.6455 412.009 79.2051 402.938C80.6012 398.287 81.532 393.867 82.23 389.448C83.1608 385.029 83.6261 380.61 83.6261 376.191C83.6261 372.004 82.9281 367.585 81.532 363.631C80.8339 361.538 79.9032 359.677 78.7397 357.584C77.5763 355.723 76.1802 353.863 74.3187 352.002C70.8284 348.513 67.5708 345.49 64.3132 342.699C60.8229 340.14 57.5652 337.814 54.3076 335.721C51.2827 333.628 48.2578 331.767 45.4655 329.907C42.6733 328.046 40.1138 326.185 38.0196 324.324C35.9254 322.464 34.0639 320.37 32.9005 318.045C31.5043 315.719 30.5736 313.16 30.1082 310.369C29.6429 304.555 31.039 296.647 34.2966 285.948Z" fill="url(#paint2_linear_5_210)"/>
<path d="M31.2717 328.744C33.5985 330.139 36.8561 331.069 40.8118 332.698C42.6733 333.395 45.0002 334.326 47.0944 335.256C49.4212 336.186 51.7481 337.349 54.3076 338.512C64.3132 343.164 76.4129 350.607 87.1164 362.236C93.6317 369.446 98.7508 377.121 103.172 384.564C107.36 392.239 110.385 399.45 112.712 406.427C117.366 420.15 118.762 431.314 120.856 438.059C118.762 431.314 113.643 421.313 105.731 409.916C101.776 404.101 97.122 398.287 92.2356 392.007C87.1165 385.727 81.532 379.447 75.7148 372.702C65.942 362.003 57.5653 352.467 49.8866 344.792C48.0251 342.931 46.1636 341.071 44.5348 339.442C42.6733 337.814 41.0445 336.186 39.6484 334.791C36.3908 332 33.5985 329.907 31.2717 328.744Z" fill="#2B3491"/>
<path d="M23.593 359.212C25.2218 359.212 28.0141 357.352 31.9697 355.956C35.6927 354.561 40.8118 353.398 45.9309 355.026C52.2135 356.886 56.8672 361.073 59.8921 365.027C63.1497 368.981 64.7785 372.702 66.64 373.865C64.7785 372.47 60.8229 372.237 56.1691 372.004C51.5154 371.772 46.3963 371.539 41.2772 370.144C37.0888 368.981 33.8312 366.19 30.8063 363.864C27.7814 361.306 25.2218 359.212 23.593 359.212Z" fill="#2B3491"/>
<path d="M99.4488 403.171H40.8118C39.6484 403.171 38.7176 402.473 38.2523 401.543L36.1581 396.193C35.46 394.565 33.8312 393.402 31.9697 393.402H7.53763C5.67614 393.402 4.04732 394.565 3.34926 396.193L1.25509 401.078C0.557031 402.473 0.324341 404.101 0.324341 405.497V409.683V474.807C0.324341 478.528 3.34926 481.32 6.83956 481.32H99.4488C103.172 481.32 105.964 478.296 105.964 474.807V409.683C106.197 406.194 103.172 403.171 99.4488 403.171Z" fill="#2B3491"/>
<path d="M99.4488 485.971H6.83956C3.11658 485.971 0.324341 482.948 0.324341 479.459V414.335C0.324341 410.614 3.34926 407.823 6.83956 407.823H99.4488C103.172 407.823 105.964 410.846 105.964 414.335V479.459C106.197 482.948 103.172 485.971 99.4488 485.971Z" fill="url(#paint3_linear_5_210)"/>
<path d="M117.831 428.058H59.194C58.0306 428.058 57.0998 427.36 56.6345 426.429L54.5403 421.08C53.8422 419.452 52.2134 418.289 50.3519 418.289H25.6872C23.8257 418.289 22.1969 419.452 21.4988 421.08L19.4046 425.964C18.7066 427.36 18.4739 428.988 18.4739 430.383V434.57V499.694C18.4739 503.415 21.4988 506.206 24.9891 506.206H117.598C121.321 506.206 124.114 503.183 124.114 499.694V434.57C124.346 431.081 121.321 428.058 117.831 428.058Z" fill="#2B3491"/>
<path d="M117.831 510.858H25.2218C21.4988 510.858 18.7065 507.834 18.7065 504.346V439.222C18.7065 435.5 21.7315 432.709 25.2218 432.709H117.831C121.554 432.709 124.346 435.733 124.346 439.222V504.346C124.346 507.834 121.321 510.858 117.831 510.858Z" fill="url(#paint4_linear_5_210)"/>
<path d="M372.623 361.073H97.1219V542.955H372.623V361.073Z" fill="url(#paint5_linear_5_210)"/>
<path d="M364.013 369.679H105.731V534.582H364.013V369.679Z" fill="url(#paint6_linear_5_210)"/>
<path d="M267.216 464.573C289.576 464.573 307.703 446.454 307.703 424.104C307.703 401.753 289.576 383.634 267.216 383.634C244.855 383.634 226.728 401.753 226.728 424.104C226.728 446.454 244.855 464.573 267.216 464.573Z" fill="#FCFDFA"/>
<path d="M295.138 415.963L225.798 508.067L173.908 438.989L105.731 529.465V534.582H364.013V507.834L295.138 415.963Z" fill="#2B3491"/>
<path d="M397.986 185.471C397.986 130.116 353.077 85.4593 297.931 85.4593C261.631 85.4593 229.986 104.764 212.302 133.604C206.019 131.046 199.039 129.651 191.826 129.651C160.878 129.651 135.981 154.77 135.981 185.471C101.31 185.471 73.1553 214.079 74.0861 248.967C75.0168 282.692 103.405 308.974 137.144 308.974H219.283C229.753 308.974 238.13 300.601 238.13 290.134V249.665C238.13 244.315 233.709 240.129 228.357 240.129C220.911 239.896 216.258 231.523 220.446 225.243L258.839 165.701C262.562 159.887 271.172 159.887 275.127 165.701L313.521 225.243C317.709 231.523 313.055 239.896 305.609 240.129C300.257 240.129 295.836 244.315 295.836 249.665V290.134C295.836 300.601 304.213 308.974 314.684 308.974H396.822C430.562 308.974 458.95 282.459 459.88 248.967C460.811 214.079 432.656 185.471 397.986 185.471Z" fill="url(#paint7_linear_5_210)"/>
<path d="M74.086 249.665C75.2494 216.637 102.474 190.123 135.748 190.123C135.748 159.189 160.878 134.302 191.593 134.302C198.806 134.302 205.787 135.698 212.069 138.256C229.753 109.416 261.399 90.111 297.698 90.111C353.077 90.111 397.753 135 397.753 190.123C431.027 190.123 458.252 216.637 459.415 249.665C459.415 249.432 459.415 249.199 459.415 248.967C460.346 214.079 432.423 185.471 397.52 185.471C397.52 130.116 352.612 85.4593 297.465 85.4593C261.166 85.4593 229.521 104.764 211.836 133.604C205.554 131.046 198.573 129.651 191.36 129.651C160.413 129.651 135.515 154.77 135.515 185.471C100.845 185.471 72.6899 214.079 73.6206 248.967C74.086 249.199 74.086 249.432 74.086 249.665Z" fill="#81E7EE"/>
<path d="M305.609 240.129C300.257 240.129 295.836 244.315 295.836 249.665V254.316C295.836 248.967 300.257 244.78 305.609 244.548C312.124 244.315 316.08 238.268 314.684 232.686C313.753 236.872 310.263 240.129 305.609 240.129Z" fill="#81E7EE"/>
<path d="M228.357 240.129C223.703 240.129 220.213 236.872 219.282 232.686C217.886 238.5 222.075 244.548 228.357 244.548C233.709 244.548 238.13 248.734 238.13 254.316V249.665C238.363 244.315 233.709 240.129 228.357 240.129Z" fill="#81E7EE"/>
<path d="M459.88 248.967C458.95 282.692 430.562 308.974 396.822 308.974H314.684C304.213 308.974 295.836 300.601 295.836 290.134V309.206C295.836 319.673 304.213 328.046 314.684 328.046H396.822C430.562 328.046 458.95 301.531 459.88 268.039V248.967Z" fill="#2B3491"/>
<path d="M219.282 308.974H137.144C103.405 308.974 75.0167 282.459 74.086 248.967V264.55C74.086 265.713 74.086 266.876 74.086 267.806C75.0167 301.531 103.405 327.813 137.144 327.813H219.282C229.753 327.813 238.13 319.44 238.13 308.974V289.902C238.363 300.601 229.753 308.974 219.282 308.974Z" fill="#2B3491"/>
<path d="M313.52 225.243L275.127 165.701C271.404 159.887 262.795 159.887 258.839 165.701L220.446 225.243C217.188 230.127 219.282 236.407 223.936 238.966L258.839 184.773C262.562 178.959 271.171 178.959 275.127 184.773L310.03 238.966C314.684 236.407 316.545 230.127 313.52 225.243Z" fill="#2B3491"/>
<path d="M242.318 249.897V386.425" stroke="#81E7EE" stroke-miterlimit="10"/>
<path d="M291.415 249.897V345.955" stroke="#81E7EE" stroke-miterlimit="10"/>
<path d="M266.983 431.546V286.413" stroke="#2B3491" stroke-miterlimit="10" stroke-linecap="round" stroke-dasharray="3 3"/>
<path d="M151.105 349.909C203.227 327.581 196.945 275.249 196.945 275.249C196.945 275.249 180.656 260.363 151.105 258.503C121.321 260.363 105.266 275.249 105.266 275.249C105.266 275.249 98.7508 327.813 151.105 349.909Z" fill="url(#paint8_linear_5_210)"/>
<path d="M151.105 342.466C113.177 324.79 111.549 288.739 111.781 278.738C116.668 275.249 130.163 266.643 151.105 265.248C172.047 266.643 185.543 275.249 190.429 278.738C190.662 288.971 189.266 324.557 151.105 342.466Z" fill="url(#paint9_linear_5_210)"/>
<path d="M153.432 284.552L156.224 293.391C156.457 294.554 157.62 295.251 158.551 295.251H167.859C170.418 295.251 171.349 298.507 169.255 299.903L161.809 305.252C160.878 305.95 160.645 307.113 160.878 308.043L163.67 316.882C164.368 319.208 161.809 321.301 159.715 319.673L152.269 314.323C151.338 313.626 150.174 313.626 149.244 314.323L141.798 319.673C139.704 321.068 137.144 319.208 137.842 316.882L140.634 308.043C140.867 306.881 140.634 305.95 139.704 305.252L132.258 299.903C130.163 298.507 131.327 295.251 133.654 295.251H142.961C144.125 295.251 145.055 294.554 145.288 293.391L148.08 284.552C149.476 282.227 152.734 282.227 153.432 284.552Z" fill="#FCFDFA"/>
<path d="M564.357 422.01C560.634 422.475 554.816 425.266 547.836 428.755C540.855 432.244 532.711 436.663 522.938 440.617C517.121 443.176 511.304 445.269 505.952 447.362C500.6 449.455 495.481 451.549 490.828 453.642C481.52 457.596 474.307 461.55 470.584 465.039C474.307 461.55 478.961 454.805 486.407 447.13C490.13 443.408 494.551 439.454 499.437 435.733C504.556 432.011 510.373 428.755 516.889 425.964C527.592 421.545 537.83 420.615 545.974 420.847C554.351 421.08 560.401 422.475 564.357 422.01Z" fill="#2B3491"/>
<path d="M491.293 349.676C491.293 353.398 493.154 358.98 494.783 366.655C496.412 374.098 497.808 383.634 496.645 394.1C495.249 406.892 491.293 418.289 487.337 427.36C483.382 436.431 479.659 443.408 478.263 448.06C479.426 443.408 479.426 435.5 479.426 425.964C479.426 416.196 479.426 404.799 480.822 392.472C481.986 382.471 484.545 373.633 486.872 366.422C489.432 358.98 491.293 353.398 491.293 349.676Z" fill="#2B3491"/>
<path d="M537.132 391.309C534.805 392.472 532.013 395.728 528.756 400.147C525.498 404.334 521.775 409.218 516.656 413.637C510.606 418.987 504.091 423.406 498.739 427.592C493.387 431.779 489.199 435.5 487.57 438.524C488.966 435.5 489.664 429.918 492.224 422.941C494.551 416.196 498.739 408.055 505.952 401.543C512.002 396.426 518.75 394.1 524.335 393.17C530.384 392.007 534.805 392.239 537.132 391.309Z" fill="#2B3491"/>
<path d="M383.792 487.134C371.459 487.134 349.82 470.388 333.066 470.388V504.578L436.146 542.955V490.856L383.792 487.134Z" fill="#270842"/>
<path d="M322.363 504.346C339.581 525.976 393.797 542.489 403.803 544.35C413.808 546.211 415.437 530.395 415.437 530.395C376.579 485.506 355.404 484.111 349.587 478.296C342.606 471.086 333.532 468.062 325.388 471.551C317.476 475.272 311.892 491.553 322.363 504.346Z" fill="url(#paint10_linear_5_210)"/>
<path d="M481.52 483.413C495.249 475.04 509.21 470.388 523.404 470.388V504.578L436.146 542.955V490.856L481.52 483.413Z" fill="#270842"/>
<path d="M532.479 504.346C517.819 525.976 471.98 542.489 463.371 544.35C454.761 546.211 453.365 530.395 453.365 530.395C486.174 485.506 504.323 484.111 508.977 478.296C515.027 471.086 522.706 468.062 529.454 471.551C536.434 475.272 541.321 491.553 532.479 504.346Z" fill="url(#paint11_linear_5_210)"/>
<path d="M465.93 376.424C475.936 379.68 478.961 383.866 478.961 383.866C478.961 383.866 479.891 426.197 468.722 450.153C459.182 470.388 476.401 483.645 476.401 483.645C476.401 483.645 472.678 495.507 435.914 495.507C399.149 495.507 389.376 487.367 389.376 487.367C389.376 487.367 411.016 475.272 401.941 450.386C393.099 426.197 392.867 384.099 392.867 384.099C392.867 384.099 395.892 379.912 405.897 376.656H465.93V376.424Z" fill="url(#paint12_linear_5_210)"/>
<path d="M446.152 364.097C446.152 369.911 459.415 373.633 466.163 376.424C466.163 376.424 460.578 398.054 436.146 398.054C411.714 398.054 406.13 376.424 406.13 376.424C412.878 373.633 426.141 369.911 426.141 364.097H446.152Z" fill="url(#paint13_linear_5_210)"/>
<path d="M465.93 376.424C459.182 373.633 445.919 369.911 445.919 364.097H425.908C425.908 365.259 425.443 366.19 424.512 367.12C428.468 376.656 433.354 379.912 435.914 379.912C440.567 379.912 445.221 374.563 451.504 375.493C456.855 376.424 458.484 383.866 453.132 393.402C463.371 386.89 465.93 376.424 465.93 376.424Z" fill="#FF6CBD"/>
<path d="M504.556 581.564H359.36C356.568 581.564 354.473 579.471 354.241 576.912L349.587 504.113C349.354 501.089 351.681 498.763 354.706 498.763H509.21C512.235 498.763 514.562 501.322 514.329 504.113L509.675 576.912C509.443 579.471 507.348 581.564 504.556 581.564Z" fill="url(#paint14_linear_5_210)"/>
<path d="M419.16 543.42C418.695 536.442 424.512 530.628 431.958 530.628C439.404 530.628 445.221 536.675 444.756 543.42C444.29 549.932 438.706 554.817 431.958 554.817C425.21 554.817 419.626 549.932 419.16 543.42Z" fill="url(#paint15_linear_5_210)"/>
<path d="M442.662 543.42C442.429 548.769 437.542 552.956 431.958 552.956C426.374 552.956 421.487 548.769 421.254 543.42C421.022 537.838 425.675 532.953 431.958 532.953C438.241 532.953 442.894 537.838 442.662 543.42Z" fill="url(#paint16_linear_5_210)"/>
<path d="M402.872 486.436C402.639 484.576 402.407 482.715 402.174 481.087C401.476 473.877 400.778 422.243 400.778 422.243C405.432 410.381 400.313 379.215 394.495 382.238C387.515 385.96 380.534 399.45 381.232 415.033C381.93 428.988 380.302 476.668 381.93 488.065C381.232 478.761 392.401 472.714 402.872 486.436Z" fill="url(#paint17_linear_5_210)"/>
<path d="M382.163 488.065C382.861 492.484 383.792 498.531 383.792 498.531H404.966C404.966 498.531 403.803 492.484 402.872 486.436C392.401 472.714 381.232 478.761 382.163 488.065Z" fill="url(#paint18_linear_5_210)"/>
<path d="M469.42 486.436C469.653 484.576 469.886 482.715 470.119 481.087C470.817 473.877 471.515 422.243 471.515 422.243C466.861 410.381 471.98 379.215 477.797 382.238C484.778 385.96 491.758 399.45 491.06 415.033C490.362 428.988 491.991 476.668 490.362 488.065C490.828 478.761 479.659 472.714 469.42 486.436Z" fill="url(#paint19_linear_5_210)"/>
<path d="M490.13 488.065C489.432 492.484 488.501 498.531 488.501 498.531H467.326C467.326 498.531 468.49 492.484 469.42 486.436C479.659 472.714 490.828 478.761 490.13 488.065Z" fill="url(#paint20_linear_5_210)"/>
<path d="M404.734 362.468C402.174 361.306 399.847 359.445 399.149 356.886C398.218 354.328 399.615 351.072 402.174 350.374C404.501 349.676 407.759 351.072 409.62 349.444C411.016 348.281 410.551 345.955 409.387 344.559C408.224 343.164 406.595 342.466 404.966 341.536C401.476 339.443 398.451 336.419 397.288 332.698C395.892 328.976 396.357 324.557 398.916 321.301C401.476 318.045 405.897 316.649 409.853 317.812C411.714 318.51 413.343 319.905 415.205 320.836C417.066 321.766 419.16 322.464 421.254 321.766C423.581 320.836 424.745 318.045 425.675 315.719C427.304 311.532 429.631 307.346 433.121 304.09C436.612 300.833 441.033 298.74 445.686 298.74C450.34 298.74 455.227 301.066 457.553 305.02C459.182 308.043 459.415 311.532 459.182 314.788C458.95 318.277 458.484 321.533 458.95 325.022C459.415 328.278 460.811 331.767 463.836 333.628C464.767 334.093 465.698 334.558 466.396 335.023C469.653 336.884 471.282 341.071 470.351 344.559C468.955 349.444 463.371 352.467 462.44 357.352C461.975 359.91 462.673 362.701 461.044 364.794C459.182 367.353 455.227 366.888 452.202 365.725C449.177 364.329 446.385 362.468 443.36 362.468C439.637 362.468 436.379 365.027 432.656 364.562C430.096 364.097 428.235 362.236 425.675 362.003C422.651 361.771 419.16 363.864 416.135 364.329C411.947 364.562 408.224 363.864 404.734 362.468Z" fill="#270842"/>
<path d="M420.556 346.653C421.254 350.141 420.556 353.165 418.927 353.398C417.299 353.63 415.67 350.839 414.972 347.35C414.274 343.862 414.972 340.838 416.601 340.605C418.229 340.373 420.091 343.164 420.556 346.653Z" fill="url(#paint21_linear_5_210)"/>
<path d="M451.504 347.583C450.806 351.072 451.504 354.095 453.132 354.328C454.761 354.561 456.39 351.77 457.088 348.281C457.786 344.792 457.088 341.768 455.459 341.536C454.063 341.303 452.202 344.094 451.504 347.583Z" fill="url(#paint22_linear_5_210)"/>
<path d="M434.285 327.115C431.493 329.674 425.675 326.65 422.883 330.837C420.091 335.023 420.091 337.117 417.997 341.071C417.997 341.071 417.299 349.676 419.858 358.514C422.418 367.353 430.562 372.935 437.31 372.935C444.988 372.935 452.9 363.399 453.83 355.956C454.761 348.513 453.83 342.466 453.83 342.466C453.83 342.466 445.686 342.234 441.265 333.628C437.775 326.883 434.285 327.115 434.285 327.115Z" fill="url(#paint23_linear_5_210)"/>
<path d="M119.46 462.015C120.623 464.573 124.114 467.597 128.069 472.249C132.025 476.9 136.213 482.948 138.307 490.855C140.867 500.391 140.402 509.928 139.471 517.37C138.307 525.046 136.679 530.628 136.911 534.349C136.679 530.86 134.585 525.046 131.792 518.301C129 511.556 125.51 503.648 123.183 494.809C121.321 487.599 121.089 480.854 120.856 475.04C120.623 469.225 120.623 464.341 119.46 462.015Z" fill="#FCFDFA"/>
<path d="M125.51 502.485C132.49 512.253 136.213 522.952 138.307 533.186C139.238 538.303 139.704 543.187 139.704 548.072C139.704 550.397 139.704 552.723 139.704 554.816C139.471 557.142 139.471 559.236 139.238 561.096C138.773 565.05 138.075 569.004 137.377 572.26C136.679 575.517 135.748 578.308 135.05 580.633C133.421 585.285 132.258 587.844 132.258 587.844C132.258 587.844 129.698 586.216 125.742 583.657C123.648 582.262 121.321 580.633 118.762 578.773C116.202 576.912 113.41 574.819 110.385 572.493C108.989 571.33 107.36 570.167 105.731 569.004C104.103 567.841 102.474 566.446 101.078 565.283C98.0527 562.724 94.7951 559.933 91.7701 557.142C85.4876 551.56 79.9031 545.28 75.0167 538.768C70.1303 532.023 66.8727 525.278 63.6151 518.301C62.917 516.673 61.9863 515.044 61.2882 513.184L60.1248 510.625C59.6594 509.695 59.4267 508.997 58.9613 508.067C58.2633 506.439 57.5652 504.811 56.8672 502.95C56.1691 501.322 55.2384 499.694 54.5403 498.298C53.8422 496.67 53.1442 495.042 52.2134 493.647C51.5154 492.251 50.5846 490.856 49.8866 489.46C49.1885 488.065 48.4904 486.669 47.7924 485.506C47.0943 484.343 46.3963 483.18 45.9309 482.25C43.3713 478.063 41.9752 475.737 41.9752 475.737C41.9752 475.737 44.5348 474.575 49.4212 473.179C50.5846 472.946 51.9807 472.481 53.6095 472.249C55.0057 472.016 56.6345 471.784 58.496 471.551C60.3575 471.318 62.219 471.318 64.0804 471.086C66.1746 471.086 68.0361 471.086 70.363 471.318C72.4572 471.551 75.0167 471.784 77.3436 472.249C79.6705 472.714 81.9973 473.412 84.5569 473.877C85.7203 474.109 87.1164 474.575 88.2799 475.04C89.4433 475.505 90.6067 475.97 92.0028 476.435C94.5624 477.366 97.1219 478.529 99.4488 479.924C109.222 485.041 118.529 492.716 125.51 502.485Z" fill="url(#paint24_linear_5_210)"/>
<path d="M104.568 482.715L102.939 481.785C102.939 484.343 103.172 487.599 103.404 491.553C103.404 495.507 103.87 499.694 104.103 504.113C104.568 513.184 105.964 522.952 108.756 532.721C104.103 524.58 98.5181 516.905 92.4682 509.462C91.3048 508.067 90.1413 506.439 88.9779 504.811C88.0472 503.183 86.8837 501.787 85.953 500.159C85.0222 498.531 84.3242 496.903 83.6261 495.275C82.6954 493.647 81.9973 492.018 81.2993 490.39C80.6012 488.762 79.9031 487.134 79.4378 485.273C78.7397 483.645 78.2743 482.017 77.5763 480.389C76.4128 477.366 75.7148 474.109 74.5513 471.318C74.086 471.318 73.3879 471.086 72.9225 471.086C74.5513 475.272 75.9475 480.622 78.0416 485.739C79.9031 491.088 82.23 496.438 85.2549 501.554C79.4378 495.507 72.6899 490.158 65.7093 485.506L60.3575 482.25C59.4267 481.785 58.496 481.087 57.5652 480.854L54.773 479.459C51.05 477.366 46.8616 476.203 42.906 474.807C42.2079 475.04 41.9752 475.272 41.9752 475.272C41.9752 475.272 42.2079 475.505 42.4406 476.203C46.3963 477.598 50.3519 478.761 54.0749 480.854L56.8672 482.25C57.7979 482.715 58.7287 483.18 59.6594 483.645L65.0112 486.902C71.9918 491.553 78.507 496.67 84.3242 502.717C79.4378 499.694 73.6206 498.531 68.7342 498.066C63.6151 498.066 58.9613 498.531 55.471 499.926L55.9364 501.089C58.2633 500.159 60.8228 499.926 63.8478 499.694C65.2439 499.461 66.8727 499.461 68.5015 499.461C70.1303 499.694 71.5264 499.694 73.1552 500.159C74.784 500.624 76.4128 500.857 78.0416 501.322C79.6704 502.02 81.2992 502.717 82.6954 503.415C84.3242 504.346 85.953 505.276 87.3491 506.439C88.7452 507.602 90.1413 508.997 91.3048 510.393C97.3546 517.603 102.939 525.278 107.593 533.419C100.845 526.209 91.5375 522.255 83.8588 520.626C79.9031 519.929 75.9475 519.696 72.9225 519.696C69.6649 519.696 66.8727 520.161 64.7785 520.626L65.2439 521.789C66.4073 521.557 68.0361 521.324 69.6649 521.092C71.2937 520.859 73.1552 520.859 75.2494 521.092C77.3436 521.092 79.4378 521.324 81.7646 521.557C83.8588 522.022 86.1857 522.487 88.7452 523.185C98.0527 526.209 108.058 532.721 113.643 543.42C115.271 546.909 117.133 550.165 118.529 553.654C119.925 557.142 121.787 560.631 122.95 564.12C115.737 553.886 105.033 548.072 95.9585 545.281C86.8837 542.49 79.6704 542.489 78.0416 542.489L78.9724 543.652C82.4627 543.652 91.7702 544.35 101.776 548.769C111.781 553.188 122.485 561.794 127.139 574.819C128.767 579.005 129.931 582.959 131.327 587.146C132.025 587.611 132.258 587.611 132.258 587.611C132.258 587.611 132.49 587.146 132.723 586.681C131.327 582.494 130.163 578.308 128.535 574.121C123.881 561.096 124.346 547.839 125.742 535.977C127.139 524.115 129.465 514.114 130.629 510.16L129.465 508.299C129 509.928 126.906 518.068 125.277 528.302C123.648 538.536 122.252 551.095 124.114 563.19C122.717 559.701 121.089 556.212 119.693 552.723C118.064 549.234 116.435 545.978 114.573 542.489C108.989 531.791 107.127 520.394 105.964 509.462C105.731 506.671 105.499 504.113 105.499 501.554C105.266 498.996 105.033 496.438 105.033 494.112C105.033 491.786 104.801 489.46 104.801 487.599C104.801 486.204 104.568 484.343 104.568 482.715Z" fill="#9558F7"/>
<path d="M193.687 540.164C189.964 544.815 185.543 548.769 180.889 552.026C176.235 555.514 171.349 558.538 167.161 561.096C165.066 562.259 162.972 563.655 161.111 564.585C159.249 565.515 157.62 566.446 155.992 567.376C153.199 569.004 151.338 569.702 151.338 569.702C151.338 569.702 150.64 567.841 149.942 564.585C149.476 562.957 149.244 560.864 149.011 558.77C148.778 556.445 148.546 553.886 148.546 551.095C148.546 545.513 149.244 539.001 151.338 532.488C153.432 525.976 156.69 519.231 161.343 513.184C166.23 507.369 172.28 502.95 178.33 499.694C184.379 496.438 190.662 494.577 196.246 493.414C199.039 492.949 201.598 492.484 203.692 492.484C206.019 492.251 207.881 492.251 209.742 492.251C213 492.251 215.094 492.484 215.094 492.484C215.094 492.484 214.629 494.344 213.698 497.601C213.233 499.229 212.534 501.089 211.836 502.95C211.138 505.043 210.44 507.369 209.51 509.695C207.648 514.347 205.787 519.696 203.227 525.046C200.667 530.628 197.643 535.745 193.687 540.164Z" fill="url(#paint25_linear_5_210)"/>
<path d="M201.598 528.069L202.064 527.139C200.667 526.906 198.573 526.674 196.246 526.674C193.92 526.674 191.36 526.906 188.568 527.371C182.983 528.302 176.701 530.628 171.582 535.047C175.305 529.93 179.493 525.046 183.681 520.394C185.31 518.533 187.404 516.905 189.499 515.742C191.593 514.579 193.92 513.649 196.014 513.184C198.108 512.486 200.435 512.253 202.529 512.253C204.623 512.253 206.485 512.253 208.113 512.486L208.346 511.556C202.994 510.858 195.083 511.09 188.335 515.277C196.246 507.136 205.089 499.926 214.396 493.647C214.629 493.181 214.629 492.949 214.629 492.949C214.629 492.949 214.396 492.949 213.931 492.949C204.623 499.461 195.781 506.671 187.637 514.812C191.593 507.834 193.222 499.926 193.92 494.344L192.989 494.577C192.756 496.438 192.291 498.531 191.825 500.624C191.36 502.717 190.662 505.043 189.964 507.136C189.266 509.462 188.102 511.556 186.939 513.882C185.776 515.975 184.379 518.068 182.518 520.161C178.097 524.813 174.141 529.697 170.418 535.047C172.978 528.767 174.374 522.255 174.839 516.207C175.072 513.184 175.305 510.393 175.305 507.834C175.305 505.276 175.305 503.183 175.305 501.554L174.374 502.252C174.374 506.206 174.374 512.951 173.443 519.929C172.28 527.139 170.418 534.582 165.765 541.327C164.368 543.42 162.972 545.746 161.576 547.839C160.413 550.165 159.017 552.258 157.62 554.584C159.947 546.443 159.947 538.07 159.482 531.093C159.017 524.115 158.086 518.766 157.853 517.603L157.155 518.766C157.62 521.324 158.784 528.069 159.017 536.21C159.249 544.35 158.319 553.188 154.363 561.562C152.967 564.12 151.803 566.911 150.64 569.702C150.873 570.167 150.873 570.4 150.873 570.4C150.873 570.4 151.105 570.4 151.571 570.167C152.734 567.376 153.898 564.818 155.294 562.259C159.482 553.886 167.161 549.002 174.374 546.676C181.355 544.35 187.87 544.35 190.197 544.583L190.895 543.652C189.731 543.652 184.845 543.187 178.562 544.583C172.28 545.978 164.601 549.002 159.017 555.282C160.18 552.956 161.576 550.863 162.74 548.537C164.136 546.443 165.532 544.118 166.928 542.024C171.349 535.279 178.562 531.325 185.077 529.697C191.825 527.371 198.108 527.604 201.598 528.069Z" fill="#9558F7"/>
<path d="M477.797 270.83C478.495 269.9 478.961 268.969 479.659 267.806" stroke="#2B3491" stroke-width="0.5" stroke-miterlimit="10"/>
<path d="M483.149 261.759C500.6 229.43 502.462 189.658 488.035 155.933C481.985 141.978 472.678 128.488 458.717 121.743C444.523 114.998 425.21 117.324 416.368 129.651C407.526 142.21 415.903 163.375 431.493 163.841C441.033 164.073 449.642 157.328 453.83 148.955C458.019 140.582 458.251 131.046 458.251 121.975C458.019 105.694 455.925 88.0178 444.523 75.9233C427.537 57.7817 397.753 58.712 373.088 64.294C348.423 69.8761 322.13 78.2492 298.163 69.8761C278.385 62.8985 264.656 45.9198 248.601 32.895C212.767 3.58928 161.343 -6.4119 116.668 6.61288C71.9918 19.8702 35.46 55.921 22.8949 99.4144C11.0279 140.582 21.2661 186.866 48.9558 220.126" stroke="#2B3491" stroke-width="0.5" stroke-miterlimit="10" stroke-dasharray="2.99 2.99"/>
<path d="M51.2827 222.685C51.9808 223.615 52.9117 224.313 53.6099 225.244" stroke="#2B3491" stroke-width="0.5" stroke-miterlimit="10"/>
<defs>
<linearGradient id="paint0_linear_5_210" x1="264.927" y1="256.63" x2="264.927" y2="-197.933" gradientUnits="userSpaceOnUse">
<stop stop-color="#03CFDE" stop-opacity="0"/>
<stop offset="1" stop-color="#03CFDE"/>
</linearGradient>
<linearGradient id="paint1_linear_5_210" x1="432.798" y1="411.728" x2="432.798" y2="107.193" gradientUnits="userSpaceOnUse">
<stop stop-color="#837BFF" stop-opacity="0"/>
<stop offset="1" stop-color="#837BFF"/>
</linearGradient>
<linearGradient id="paint2_linear_5_210" x1="106.152" y1="437.362" x2="106.152" y2="132.825" gradientUnits="userSpaceOnUse">
<stop stop-color="#837BFF" stop-opacity="0"/>
<stop offset="1" stop-color="#837BFF"/>
</linearGradient>
<linearGradient id="paint3_linear_5_210" x1="53.2049" y1="335.18" x2="53.2049" y2="537.171" gradientUnits="userSpaceOnUse">
<stop stop-color="#5095FB"/>
<stop offset="1" stop-color="#2B3491"/>
</linearGradient>
<linearGradient id="paint4_linear_5_210" x1="71.4401" y1="360.03" x2="71.4401" y2="562.021" gradientUnits="userSpaceOnUse">
<stop stop-color="#5095FB"/>
<stop offset="1" stop-color="#2B3491"/>
</linearGradient>
<linearGradient id="paint5_linear_5_210" x1="234.904" y1="319.783" x2="234.904" y2="1340.34" gradientUnits="userSpaceOnUse">
<stop stop-color="#FCFDFA"/>
<stop offset="1" stop-color="#837BFF"/>
</linearGradient>
<linearGradient id="paint6_linear_5_210" x1="234.904" y1="375.651" x2="234.904" y2="521.647" gradientUnits="userSpaceOnUse">
<stop stop-color="#03CFDE"/>
<stop offset="1" stop-color="#5095FB"/>
</linearGradient>
<linearGradient id="paint7_linear_5_210" x1="339.506" y1="63.1044" x2="245.408" y2="302.073" gradientUnits="userSpaceOnUse">
<stop stop-color="#03CFDE"/>
<stop offset="1" stop-color="#9558F7"/>
</linearGradient>
<linearGradient id="paint8_linear_5_210" x1="151.048" y1="227.294" x2="151.048" y2="759.523" gradientUnits="userSpaceOnUse">
<stop stop-color="#FCFDFA"/>
<stop offset="1" stop-color="#837BFF"/>
</linearGradient>
<linearGradient id="paint9_linear_5_210" x1="151.066" y1="341.471" x2="151.066" y2="213.987" gradientUnits="userSpaceOnUse">
<stop stop-color="#5095FB"/>
<stop offset="1" stop-color="#2B3491"/>
</linearGradient>
<linearGradient id="paint10_linear_5_210" x1="335.896" y1="515.47" x2="532.082" y2="467.032" gradientUnits="userSpaceOnUse">
<stop stop-color="#270842"/>
<stop offset="1" stop-color="#2B3491"/>
</linearGradient>
<linearGradient id="paint11_linear_5_210" x1="516.211" y1="513.166" x2="389.175" y2="481.394" gradientUnits="userSpaceOnUse">
<stop offset="0.0699165" stop-color="#270842"/>
<stop offset="0.2366" stop-color="#291A63"/>
<stop offset="0.4033" stop-color="#2A287C"/>
<stop offset="0.5545" stop-color="#2B318C"/>
<stop offset="0.6753" stop-color="#2B3491"/>
</linearGradient>
<linearGradient id="paint12_linear_5_210" x1="434.316" y1="494.477" x2="434.316" y2="371.653" gradientUnits="userSpaceOnUse">
<stop stop-color="#935AF7"/>
<stop offset="1" stop-color="#03CFDE"/>
</linearGradient>
<linearGradient id="paint13_linear_5_210" x1="515.672" y1="334.441" x2="396.9" y2="403.702" gradientUnits="userSpaceOnUse">
<stop stop-color="#FF6CBD"/>
<stop offset="1" stop-color="#FFA99B"/>
</linearGradient>
<linearGradient id="paint14_linear_5_210" x1="431.983" y1="492.451" x2="431.983" y2="588.182" gradientUnits="userSpaceOnUse">
<stop stop-color="#5095FB"/>
<stop offset="1" stop-color="#2B3491"/>
</linearGradient>
<linearGradient id="paint15_linear_5_210" x1="431.933" y1="502.419" x2="431.933" y2="560.475" gradientUnits="userSpaceOnUse">
<stop stop-color="#5095FB"/>
<stop offset="1" stop-color="#FCFDFA"/>
</linearGradient>
<linearGradient id="paint16_linear_5_210" x1="432.025" y1="576.168" x2="432.025" y2="528.231" gradientUnits="userSpaceOnUse">
<stop stop-color="#5095FB"/>
<stop offset="1" stop-color="#FCFDFA"/>
</linearGradient>
<linearGradient id="paint17_linear_5_210" x1="392.053" y1="586.427" x2="392.053" y2="356.255" gradientUnits="userSpaceOnUse">
<stop stop-color="#935AF7"/>
<stop offset="1" stop-color="#03CFDE"/>
</linearGradient>
<linearGradient id="paint18_linear_5_210" x1="457.886" y1="488.485" x2="380.123" y2="488.485" gradientUnits="userSpaceOnUse">
<stop stop-color="#FF6CBD"/>
<stop offset="1" stop-color="#FFA99B"/>
</linearGradient>
<linearGradient id="paint19_linear_5_210" x1="480.118" y1="586.427" x2="480.118" y2="356.255" gradientUnits="userSpaceOnUse">
<stop stop-color="#935AF7"/>
<stop offset="1" stop-color="#03CFDE"/>
</linearGradient>
<linearGradient id="paint20_linear_5_210" x1="564.534" y1="488.485" x2="563.519" y2="488.485" gradientUnits="userSpaceOnUse">
<stop stop-color="#FF6CBD"/>
<stop offset="1" stop-color="#FFA99B"/>
</linearGradient>
<linearGradient id="paint21_linear_5_210" x1="414.797" y1="360.769" x2="423.909" y2="320.397" gradientUnits="userSpaceOnUse">
<stop stop-color="#FF6CBD"/>
<stop offset="1" stop-color="#FFA99B"/>
</linearGradient>
<linearGradient id="paint22_linear_5_210" x1="449.62" y1="368.628" x2="458.732" y2="328.257" gradientUnits="userSpaceOnUse">
<stop stop-color="#FF6CBD"/>
<stop offset="1" stop-color="#FFA99B"/>
</linearGradient>
<linearGradient id="paint23_linear_5_210" x1="412.99" y1="277.496" x2="443.667" y2="371.36" gradientUnits="userSpaceOnUse">
<stop stop-color="#FF6CBD"/>
<stop offset="1" stop-color="#FFA99B"/>
</linearGradient>
<linearGradient id="paint24_linear_5_210" x1="79.9655" y1="421.985" x2="98.9113" y2="573.618" gradientUnits="userSpaceOnUse">
<stop stop-color="#03CFDE"/>
<stop offset="1" stop-color="#9558F7"/>
</linearGradient>
<linearGradient id="paint25_linear_5_210" x1="192.86" y1="451.958" x2="174.967" y2="560.418" gradientUnits="userSpaceOnUse">
<stop stop-color="#03CFDE"/>
<stop offset="1" stop-color="#9558F7"/>
</linearGradient>
</defs>
</svg>
